<mxfile host="app.diagrams.net" agent="Mozilla/5.0 (Windows NT 10.0; Win64; x64) AppleWebKit/537.36 (KHTML, like Gecko) Chrome/127.0.0.0 Safari/537.36" version="24.7.7">
  <diagram name="Page-1" id="y1eWYAC_dLZrMzTfsnGi">
    <mxGraphModel grid="1" page="1" gridSize="10" guides="1" tooltips="1" connect="1" arrows="1" fold="1" pageScale="1" pageWidth="850" pageHeight="1100" math="0" shadow="0">
      <root>
        <mxCell id="0" />
        <mxCell id="1" parent="0" />
        <mxCell id="Ra9LiNY-mYti2OhK1B9W-1" value="add book item" style="ellipse;whiteSpace=wrap;html=1;" vertex="1" parent="1">
          <mxGeometry x="350" y="30" width="100" height="50" as="geometry" />
        </mxCell>
        <mxCell id="Ra9LiNY-mYti2OhK1B9W-2" value="add book" style="ellipse;whiteSpace=wrap;html=1;" vertex="1" parent="1">
          <mxGeometry x="520" y="30" width="100" height="50" as="geometry" />
        </mxCell>
        <mxCell id="Ra9LiNY-mYti2OhK1B9W-3" value="remove book item" style="ellipse;whiteSpace=wrap;html=1;" vertex="1" parent="1">
          <mxGeometry x="340" y="95" width="110" height="45" as="geometry" />
        </mxCell>
        <mxCell id="Ra9LiNY-mYti2OhK1B9W-4" value="edit book item" style="ellipse;whiteSpace=wrap;html=1;" vertex="1" parent="1">
          <mxGeometry x="350" y="160" width="110" height="50" as="geometry" />
        </mxCell>
        <mxCell id="Ra9LiNY-mYti2OhK1B9W-5" value="remove book" style="ellipse;whiteSpace=wrap;html=1;" vertex="1" parent="1">
          <mxGeometry x="530" y="90" width="90" height="50" as="geometry" />
        </mxCell>
        <mxCell id="Ra9LiNY-mYti2OhK1B9W-6" value="edit book" style="ellipse;whiteSpace=wrap;html=1;" vertex="1" parent="1">
          <mxGeometry x="520" y="160" width="100" height="50" as="geometry" />
        </mxCell>
        <mxCell id="Ra9LiNY-mYti2OhK1B9W-10" value="&amp;lt;&amp;lt;include&amp;gt;&amp;gt;" style="html=1;verticalAlign=bottom;endArrow=open;dashed=1;endSize=8;curved=0;rounded=0;" edge="1" parent="1">
          <mxGeometry x="-0.0675" y="-5" relative="1" as="geometry">
            <mxPoint x="525" y="54.5" as="sourcePoint" />
            <mxPoint x="450" y="55" as="targetPoint" />
            <mxPoint as="offset" />
          </mxGeometry>
        </mxCell>
        <mxCell id="Ra9LiNY-mYti2OhK1B9W-11" value="&amp;lt;&amp;lt;include&amp;gt;&amp;gt;" style="html=1;verticalAlign=bottom;endArrow=open;dashed=1;endSize=8;curved=0;rounded=0;" edge="1" parent="1">
          <mxGeometry y="-10" relative="1" as="geometry">
            <mxPoint x="530" y="120" as="sourcePoint" />
            <mxPoint x="450" y="120" as="targetPoint" />
            <mxPoint as="offset" />
          </mxGeometry>
        </mxCell>
        <mxCell id="Ra9LiNY-mYti2OhK1B9W-12" value="&amp;lt;&amp;lt;include&amp;gt;&amp;gt;" style="html=1;verticalAlign=bottom;endArrow=open;dashed=1;endSize=8;curved=0;rounded=0;" edge="1" parent="1">
          <mxGeometry relative="1" as="geometry">
            <mxPoint x="520" y="190" as="sourcePoint" />
            <mxPoint x="460" y="190" as="targetPoint" />
          </mxGeometry>
        </mxCell>
        <mxCell id="Ra9LiNY-mYti2OhK1B9W-14" value="update catalog" style="ellipse;whiteSpace=wrap;html=1;" vertex="1" parent="1">
          <mxGeometry x="150" y="95" width="110" height="45" as="geometry" />
        </mxCell>
        <mxCell id="Ra9LiNY-mYti2OhK1B9W-18" value="&amp;lt;&amp;lt;include&amp;gt;&amp;gt;" style="html=1;verticalAlign=bottom;endArrow=open;dashed=1;endSize=8;curved=0;rounded=0;exitX=0;exitY=0.5;exitDx=0;exitDy=0;" edge="1" parent="1" source="Ra9LiNY-mYti2OhK1B9W-1" target="Ra9LiNY-mYti2OhK1B9W-14">
          <mxGeometry x="0.0473" y="-10" relative="1" as="geometry">
            <mxPoint x="320" y="80" as="sourcePoint" />
            <mxPoint x="240" y="80" as="targetPoint" />
            <mxPoint as="offset" />
          </mxGeometry>
        </mxCell>
        <mxCell id="Ra9LiNY-mYti2OhK1B9W-19" value="&amp;lt;&amp;lt;include&amp;gt;&amp;gt;" style="html=1;verticalAlign=bottom;endArrow=open;dashed=1;endSize=8;curved=0;rounded=0;" edge="1" parent="1">
          <mxGeometry relative="1" as="geometry">
            <mxPoint x="340" y="120" as="sourcePoint" />
            <mxPoint x="260" y="120" as="targetPoint" />
          </mxGeometry>
        </mxCell>
        <mxCell id="Ra9LiNY-mYti2OhK1B9W-20" value="&amp;lt;&amp;lt;include&amp;gt;&amp;gt;" style="html=1;verticalAlign=bottom;endArrow=open;dashed=1;endSize=8;curved=0;rounded=0;exitX=0;exitY=0.5;exitDx=0;exitDy=0;entryX=1;entryY=1;entryDx=0;entryDy=0;" edge="1" parent="1" source="Ra9LiNY-mYti2OhK1B9W-4" target="Ra9LiNY-mYti2OhK1B9W-14">
          <mxGeometry x="0.1058" y="26" relative="1" as="geometry">
            <mxPoint x="320" y="150" as="sourcePoint" />
            <mxPoint x="240" y="150" as="targetPoint" />
            <mxPoint as="offset" />
          </mxGeometry>
        </mxCell>
        <mxCell id="Ra9LiNY-mYti2OhK1B9W-21" value="search catalog" style="ellipse;whiteSpace=wrap;html=1;" vertex="1" parent="1">
          <mxGeometry x="200" y="400" width="100" height="50" as="geometry" />
        </mxCell>
        <mxCell id="Ra9LiNY-mYti2OhK1B9W-22" value="search by book title" style="ellipse;whiteSpace=wrap;html=1;" vertex="1" parent="1">
          <mxGeometry x="110" y="290" width="100" height="50" as="geometry" />
        </mxCell>
        <mxCell id="Ra9LiNY-mYti2OhK1B9W-23" value="search by author name" style="ellipse;whiteSpace=wrap;html=1;" vertex="1" parent="1">
          <mxGeometry x="240" y="240" width="90" height="50" as="geometry" />
        </mxCell>
        <mxCell id="Ra9LiNY-mYti2OhK1B9W-24" value="search by subject title" style="ellipse;whiteSpace=wrap;html=1;" vertex="1" parent="1">
          <mxGeometry x="300" y="310" width="90" height="50" as="geometry" />
        </mxCell>
        <mxCell id="Ra9LiNY-mYti2OhK1B9W-25" value="&amp;lt;&amp;lt;extend&amp;gt;&amp;gt;" style="html=1;verticalAlign=bottom;endArrow=open;dashed=1;endSize=8;curved=0;rounded=0;exitX=0.5;exitY=1;exitDx=0;exitDy=0;" edge="1" parent="1" source="Ra9LiNY-mYti2OhK1B9W-24" target="Ra9LiNY-mYti2OhK1B9W-21">
          <mxGeometry x="0.0235" y="33" relative="1" as="geometry">
            <mxPoint x="340" y="380" as="sourcePoint" />
            <mxPoint x="260" y="380" as="targetPoint" />
            <mxPoint as="offset" />
          </mxGeometry>
        </mxCell>
        <mxCell id="Ra9LiNY-mYti2OhK1B9W-26" value="&amp;lt;&amp;lt;extend&amp;gt;&amp;gt;" style="html=1;verticalAlign=bottom;endArrow=open;dashed=1;endSize=8;curved=0;rounded=0;entryX=0.5;entryY=0;entryDx=0;entryDy=0;entryPerimeter=0;exitX=0.5;exitY=1;exitDx=0;exitDy=0;" edge="1" parent="1" source="Ra9LiNY-mYti2OhK1B9W-23" target="Ra9LiNY-mYti2OhK1B9W-21">
          <mxGeometry x="-0.1984" y="-33" relative="1" as="geometry">
            <mxPoint x="300" y="350" as="sourcePoint" />
            <mxPoint x="220" y="350" as="targetPoint" />
            <mxPoint as="offset" />
          </mxGeometry>
        </mxCell>
        <mxCell id="Ra9LiNY-mYti2OhK1B9W-27" value="&amp;lt;&amp;lt;extend&amp;gt;&amp;gt;" style="html=1;verticalAlign=bottom;endArrow=open;dashed=1;endSize=8;curved=0;rounded=0;entryX=0;entryY=0.5;entryDx=0;entryDy=0;exitX=0.5;exitY=1;exitDx=0;exitDy=0;" edge="1" parent="1" source="Ra9LiNY-mYti2OhK1B9W-22" target="Ra9LiNY-mYti2OhK1B9W-21">
          <mxGeometry x="0.4185" y="24" relative="1" as="geometry">
            <mxPoint x="170" y="400" as="sourcePoint" />
            <mxPoint x="90" y="400" as="targetPoint" />
            <mxPoint as="offset" />
          </mxGeometry>
        </mxCell>
        <mxCell id="Ra9LiNY-mYti2OhK1B9W-28" value="issue library card" style="ellipse;whiteSpace=wrap;html=1;" vertex="1" parent="1">
          <mxGeometry x="430" y="300" width="90" height="50" as="geometry" />
        </mxCell>
        <mxCell id="Ra9LiNY-mYti2OhK1B9W-29" value="register new account" style="ellipse;whiteSpace=wrap;html=1;" vertex="1" parent="1">
          <mxGeometry x="580" y="305" width="80" height="45" as="geometry" />
        </mxCell>
        <mxCell id="Ra9LiNY-mYti2OhK1B9W-30" value="&amp;lt;&amp;lt;extend&amp;gt;&amp;gt;" style="html=1;verticalAlign=bottom;endArrow=open;dashed=1;endSize=8;curved=0;rounded=0;entryX=0;entryY=0.5;entryDx=0;entryDy=0;exitX=1;exitY=0.5;exitDx=0;exitDy=0;" edge="1" parent="1" source="Ra9LiNY-mYti2OhK1B9W-28" target="Ra9LiNY-mYti2OhK1B9W-29">
          <mxGeometry x="-0.0087" y="6" relative="1" as="geometry">
            <mxPoint x="580" y="400" as="sourcePoint" />
            <mxPoint x="500" y="400" as="targetPoint" />
            <mxPoint as="offset" />
          </mxGeometry>
        </mxCell>
        <mxCell id="Ra9LiNY-mYti2OhK1B9W-32" value="cancel membership" style="ellipse;whiteSpace=wrap;html=1;" vertex="1" parent="1">
          <mxGeometry x="310" y="460" width="110" height="40" as="geometry" />
        </mxCell>
        <mxCell id="Ra9LiNY-mYti2OhK1B9W-33" value="register/update account" style="ellipse;whiteSpace=wrap;html=1;" vertex="1" parent="1">
          <mxGeometry x="305" y="520" width="120" height="40" as="geometry" />
        </mxCell>
        <mxCell id="Ra9LiNY-mYti2OhK1B9W-34" value="login/logout" style="ellipse;whiteSpace=wrap;html=1;" vertex="1" parent="1">
          <mxGeometry x="320" y="580" width="90" height="40" as="geometry" />
        </mxCell>
        <mxCell id="Ra9LiNY-mYti2OhK1B9W-35" value="checkout book" style="ellipse;whiteSpace=wrap;html=1;" vertex="1" parent="1">
          <mxGeometry x="190" y="620" width="110" height="50" as="geometry" />
        </mxCell>
        <mxCell id="Ra9LiNY-mYti2OhK1B9W-36" value="issue book" style="ellipse;whiteSpace=wrap;html=1;" vertex="1" parent="1">
          <mxGeometry x="420" y="630" width="100" height="50" as="geometry" />
        </mxCell>
        <mxCell id="Ra9LiNY-mYti2OhK1B9W-37" value="&amp;lt;&amp;lt;include&amp;gt;&amp;gt;" style="html=1;verticalAlign=bottom;endArrow=open;dashed=1;endSize=8;curved=0;rounded=0;entryX=1;entryY=0.68;entryDx=0;entryDy=0;entryPerimeter=0;exitX=0;exitY=0.5;exitDx=0;exitDy=0;" edge="1" parent="1" source="Ra9LiNY-mYti2OhK1B9W-36" target="Ra9LiNY-mYti2OhK1B9W-35">
          <mxGeometry x="-0.166" y="-5" relative="1" as="geometry">
            <mxPoint x="410" y="670" as="sourcePoint" />
            <mxPoint x="320" y="670" as="targetPoint" />
            <mxPoint as="offset" />
          </mxGeometry>
        </mxCell>
        <mxCell id="Ra9LiNY-mYti2OhK1B9W-38" value="remove reservation" style="ellipse;whiteSpace=wrap;html=1;" vertex="1" parent="1">
          <mxGeometry x="300" y="700" width="100" height="50" as="geometry" />
        </mxCell>
        <mxCell id="Ra9LiNY-mYti2OhK1B9W-39" value="renew book" style="ellipse;whiteSpace=wrap;html=1;" vertex="1" parent="1">
          <mxGeometry x="305" y="760" width="95" height="40" as="geometry" />
        </mxCell>
        <mxCell id="Ra9LiNY-mYti2OhK1B9W-40" value="reserve book" style="ellipse;whiteSpace=wrap;html=1;" vertex="1" parent="1">
          <mxGeometry x="310" y="830" width="90" height="40" as="geometry" />
        </mxCell>
        <mxCell id="Ra9LiNY-mYti2OhK1B9W-41" value="view account" style="ellipse;whiteSpace=wrap;html=1;" vertex="1" parent="1">
          <mxGeometry x="310" y="890" width="90" height="40" as="geometry" />
        </mxCell>
        <mxCell id="Ra9LiNY-mYti2OhK1B9W-43" value="return book" style="ellipse;whiteSpace=wrap;html=1;" vertex="1" parent="1">
          <mxGeometry x="305" y="940" width="105" height="50" as="geometry" />
        </mxCell>
        <mxCell id="Ra9LiNY-mYti2OhK1B9W-44" value="pay fine" style="ellipse;whiteSpace=wrap;html=1;" vertex="1" parent="1">
          <mxGeometry x="100" y="940" width="110" height="45" as="geometry" />
        </mxCell>
        <mxCell id="Ra9LiNY-mYti2OhK1B9W-45" value="send overdue notification" style="ellipse;whiteSpace=wrap;html=1;" vertex="1" parent="1">
          <mxGeometry x="560" y="830" width="130" height="60" as="geometry" />
        </mxCell>
        <mxCell id="Ra9LiNY-mYti2OhK1B9W-46" value="send reservation available notification" style="ellipse;whiteSpace=wrap;html=1;" vertex="1" parent="1">
          <mxGeometry x="560" y="900" width="120" height="60" as="geometry" />
        </mxCell>
        <mxCell id="Ra9LiNY-mYti2OhK1B9W-47" value="send reservation cancelled notification" style="ellipse;whiteSpace=wrap;html=1;" vertex="1" parent="1">
          <mxGeometry x="565" y="970" width="120" height="60" as="geometry" />
        </mxCell>
        <mxCell id="Ra9LiNY-mYti2OhK1B9W-48" value="&amp;lt;&amp;lt;extend&amp;gt;&amp;gt;" style="html=1;verticalAlign=bottom;endArrow=open;dashed=1;endSize=8;curved=0;rounded=0;exitX=1;exitY=0.5;exitDx=0;exitDy=0;" edge="1" parent="1" source="Ra9LiNY-mYti2OhK1B9W-44">
          <mxGeometry relative="1" as="geometry">
            <mxPoint x="230" y="1000" as="sourcePoint" />
            <mxPoint x="300" y="963" as="targetPoint" />
          </mxGeometry>
        </mxCell>
        <mxCell id="Ra9LiNY-mYti2OhK1B9W-55" value="" style="edgeStyle=orthogonalEdgeStyle;rounded=0;orthogonalLoop=1;jettySize=auto;html=1;" edge="1" parent="1">
          <mxGeometry relative="1" as="geometry">
            <mxPoint x="780" y="960" as="sourcePoint" />
            <mxPoint x="780" y="960" as="targetPoint" />
          </mxGeometry>
        </mxCell>
        <mxCell id="Ra9LiNY-mYti2OhK1B9W-58" value="system" style="shape=umlActor;verticalLabelPosition=bottom;verticalAlign=top;html=1;outlineConnect=0;" vertex="1" parent="1">
          <mxGeometry x="780" y="880" width="30" height="60" as="geometry" />
        </mxCell>
        <mxCell id="Ra9LiNY-mYti2OhK1B9W-59" value="" style="endArrow=none;html=1;rounded=0;" edge="1" parent="1" target="Ra9LiNY-mYti2OhK1B9W-58">
          <mxGeometry width="50" height="50" relative="1" as="geometry">
            <mxPoint x="690" y="990" as="sourcePoint" />
            <mxPoint x="740" y="940" as="targetPoint" />
          </mxGeometry>
        </mxCell>
        <mxCell id="Ra9LiNY-mYti2OhK1B9W-60" value="" style="endArrow=none;html=1;rounded=0;exitX=1;exitY=0.5;exitDx=0;exitDy=0;" edge="1" parent="1" source="Ra9LiNY-mYti2OhK1B9W-46">
          <mxGeometry width="50" height="50" relative="1" as="geometry">
            <mxPoint x="690" y="930" as="sourcePoint" />
            <mxPoint x="780" y="920" as="targetPoint" />
          </mxGeometry>
        </mxCell>
        <mxCell id="Ra9LiNY-mYti2OhK1B9W-61" value="" style="endArrow=none;html=1;rounded=0;exitX=1;exitY=0.5;exitDx=0;exitDy=0;" edge="1" parent="1" source="Ra9LiNY-mYti2OhK1B9W-45">
          <mxGeometry width="50" height="50" relative="1" as="geometry">
            <mxPoint x="730" y="820" as="sourcePoint" />
            <mxPoint x="780" y="920" as="targetPoint" />
          </mxGeometry>
        </mxCell>
        <mxCell id="Ra9LiNY-mYti2OhK1B9W-62" value="librarian" style="shape=umlActor;verticalLabelPosition=bottom;verticalAlign=top;html=1;outlineConnect=0;" vertex="1" parent="1">
          <mxGeometry x="800" y="530" width="30" height="70" as="geometry" />
        </mxCell>
        <mxCell id="Ra9LiNY-mYti2OhK1B9W-66" value="member&lt;div&gt;&lt;br&gt;&lt;/div&gt;" style="shape=umlActor;verticalLabelPosition=bottom;verticalAlign=top;html=1;outlineConnect=0;" vertex="1" parent="1">
          <mxGeometry x="20" y="580" width="30" height="60" as="geometry" />
        </mxCell>
        <mxCell id="Ra9LiNY-mYti2OhK1B9W-68" value="" style="endArrow=none;html=1;rounded=0;exitX=1;exitY=0.5;exitDx=0;exitDy=0;" edge="1" parent="1" source="Ra9LiNY-mYti2OhK1B9W-2">
          <mxGeometry width="50" height="50" relative="1" as="geometry">
            <mxPoint x="730" y="210" as="sourcePoint" />
            <mxPoint x="790" y="550" as="targetPoint" />
          </mxGeometry>
        </mxCell>
        <mxCell id="Ra9LiNY-mYti2OhK1B9W-69" value="" style="endArrow=none;html=1;rounded=0;entryX=0.944;entryY=0.68;entryDx=0;entryDy=0;entryPerimeter=0;" edge="1" parent="1" target="Ra9LiNY-mYti2OhK1B9W-5">
          <mxGeometry width="50" height="50" relative="1" as="geometry">
            <mxPoint x="790" y="550" as="sourcePoint" />
            <mxPoint x="660" y="440" as="targetPoint" />
          </mxGeometry>
        </mxCell>
        <mxCell id="Ra9LiNY-mYti2OhK1B9W-70" value="" style="endArrow=none;html=1;rounded=0;entryX=1;entryY=0.5;entryDx=0;entryDy=0;" edge="1" parent="1" target="Ra9LiNY-mYti2OhK1B9W-6">
          <mxGeometry width="50" height="50" relative="1" as="geometry">
            <mxPoint x="790" y="550" as="sourcePoint" />
            <mxPoint x="630" y="200" as="targetPoint" />
          </mxGeometry>
        </mxCell>
        <mxCell id="Ra9LiNY-mYti2OhK1B9W-71" value="" style="endArrow=none;html=1;rounded=0;entryX=1;entryY=1;entryDx=0;entryDy=0;" edge="1" parent="1" target="Ra9LiNY-mYti2OhK1B9W-29">
          <mxGeometry width="50" height="50" relative="1" as="geometry">
            <mxPoint x="790" y="550" as="sourcePoint" />
            <mxPoint x="700" y="400" as="targetPoint" />
          </mxGeometry>
        </mxCell>
        <mxCell id="Ra9LiNY-mYti2OhK1B9W-72" value="" style="endArrow=none;html=1;rounded=0;exitX=0.678;exitY=0.98;exitDx=0;exitDy=0;exitPerimeter=0;" edge="1" parent="1" source="Ra9LiNY-mYti2OhK1B9W-28">
          <mxGeometry width="50" height="50" relative="1" as="geometry">
            <mxPoint x="600" y="480" as="sourcePoint" />
            <mxPoint x="790" y="550" as="targetPoint" />
          </mxGeometry>
        </mxCell>
        <mxCell id="Ra9LiNY-mYti2OhK1B9W-73" value="" style="endArrow=none;html=1;rounded=0;exitX=1;exitY=0.5;exitDx=0;exitDy=0;" edge="1" parent="1" source="Ra9LiNY-mYti2OhK1B9W-21">
          <mxGeometry width="50" height="50" relative="1" as="geometry">
            <mxPoint x="400" y="320" as="sourcePoint" />
            <mxPoint x="790" y="550" as="targetPoint" />
          </mxGeometry>
        </mxCell>
        <mxCell id="Ra9LiNY-mYti2OhK1B9W-74" value="" style="endArrow=none;html=1;rounded=0;exitX=1;exitY=0.75;exitDx=0;exitDy=0;exitPerimeter=0;" edge="1" parent="1" source="Ra9LiNY-mYti2OhK1B9W-32">
          <mxGeometry width="50" height="50" relative="1" as="geometry">
            <mxPoint x="560" y="580" as="sourcePoint" />
            <mxPoint x="790" y="550" as="targetPoint" />
          </mxGeometry>
        </mxCell>
        <mxCell id="Ra9LiNY-mYti2OhK1B9W-75" value="" style="endArrow=none;html=1;rounded=0;" edge="1" parent="1" source="Ra9LiNY-mYti2OhK1B9W-34">
          <mxGeometry width="50" height="50" relative="1" as="geometry">
            <mxPoint x="640" y="640" as="sourcePoint" />
            <mxPoint x="790" y="550" as="targetPoint" />
          </mxGeometry>
        </mxCell>
        <mxCell id="Ra9LiNY-mYti2OhK1B9W-76" value="" style="endArrow=none;html=1;rounded=0;" edge="1" parent="1">
          <mxGeometry width="50" height="50" relative="1" as="geometry">
            <mxPoint x="430" y="540" as="sourcePoint" />
            <mxPoint x="790" y="550" as="targetPoint" />
          </mxGeometry>
        </mxCell>
        <mxCell id="Ra9LiNY-mYti2OhK1B9W-77" value="" style="endArrow=none;html=1;rounded=0;exitX=0.92;exitY=0.18;exitDx=0;exitDy=0;exitPerimeter=0;" edge="1" parent="1" source="Ra9LiNY-mYti2OhK1B9W-36">
          <mxGeometry width="50" height="50" relative="1" as="geometry">
            <mxPoint x="590" y="670" as="sourcePoint" />
            <mxPoint x="790" y="550" as="targetPoint" />
          </mxGeometry>
        </mxCell>
        <mxCell id="Ra9LiNY-mYti2OhK1B9W-78" value="" style="endArrow=none;html=1;rounded=0;exitX=1.01;exitY=0.66;exitDx=0;exitDy=0;exitPerimeter=0;" edge="1" parent="1" source="Ra9LiNY-mYti2OhK1B9W-38">
          <mxGeometry width="50" height="50" relative="1" as="geometry">
            <mxPoint x="480" y="760" as="sourcePoint" />
            <mxPoint x="790" y="550" as="targetPoint" />
          </mxGeometry>
        </mxCell>
        <mxCell id="Ra9LiNY-mYti2OhK1B9W-79" value="" style="endArrow=none;html=1;rounded=0;exitX=1;exitY=0.5;exitDx=0;exitDy=0;" edge="1" parent="1" source="Ra9LiNY-mYti2OhK1B9W-39">
          <mxGeometry width="50" height="50" relative="1" as="geometry">
            <mxPoint x="550" y="800" as="sourcePoint" />
            <mxPoint x="790" y="550" as="targetPoint" />
          </mxGeometry>
        </mxCell>
        <mxCell id="Ra9LiNY-mYti2OhK1B9W-80" value="" style="endArrow=none;html=1;rounded=0;" edge="1" parent="1">
          <mxGeometry width="50" height="50" relative="1" as="geometry">
            <mxPoint x="386.29069870805483" y="896.1901114140237" as="sourcePoint" />
            <mxPoint x="780" y="554" as="targetPoint" />
          </mxGeometry>
        </mxCell>
        <mxCell id="Ra9LiNY-mYti2OhK1B9W-81" value="" style="endArrow=none;html=1;rounded=0;" edge="1" parent="1" source="Ra9LiNY-mYti2OhK1B9W-40">
          <mxGeometry width="50" height="50" relative="1" as="geometry">
            <mxPoint x="540" y="760" as="sourcePoint" />
            <mxPoint x="790" y="550" as="targetPoint" />
          </mxGeometry>
        </mxCell>
        <mxCell id="Ra9LiNY-mYti2OhK1B9W-82" value="" style="endArrow=none;html=1;rounded=0;" edge="1" parent="1">
          <mxGeometry width="50" height="50" relative="1" as="geometry">
            <mxPoint x="409.99665297568885" y="952.6009004978914" as="sourcePoint" />
            <mxPoint x="790" y="550" as="targetPoint" />
          </mxGeometry>
        </mxCell>
        <mxCell id="Ra9LiNY-mYti2OhK1B9W-83" value="" style="endArrow=none;html=1;rounded=0;exitX=0;exitY=0.325;exitDx=0;exitDy=0;exitPerimeter=0;" edge="1" parent="1" source="Ra9LiNY-mYti2OhK1B9W-40">
          <mxGeometry width="50" height="50" relative="1" as="geometry">
            <mxPoint x="40" y="800" as="sourcePoint" />
            <mxPoint x="80" y="610" as="targetPoint" />
          </mxGeometry>
        </mxCell>
        <mxCell id="Ra9LiNY-mYti2OhK1B9W-84" value="" style="endArrow=none;html=1;rounded=0;entryX=0;entryY=0.5;entryDx=0;entryDy=0;" edge="1" parent="1" target="Ra9LiNY-mYti2OhK1B9W-39">
          <mxGeometry width="50" height="50" relative="1" as="geometry">
            <mxPoint x="80" y="610" as="sourcePoint" />
            <mxPoint x="300" y="780" as="targetPoint" />
          </mxGeometry>
        </mxCell>
        <mxCell id="Ra9LiNY-mYti2OhK1B9W-85" value="" style="endArrow=none;html=1;rounded=0;exitX=0;exitY=0.5;exitDx=0;exitDy=0;" edge="1" parent="1" source="Ra9LiNY-mYti2OhK1B9W-38">
          <mxGeometry width="50" height="50" relative="1" as="geometry">
            <mxPoint x="180" y="760" as="sourcePoint" />
            <mxPoint x="80" y="610" as="targetPoint" />
          </mxGeometry>
        </mxCell>
        <mxCell id="Ra9LiNY-mYti2OhK1B9W-87" value="" style="endArrow=none;html=1;rounded=0;exitX=0.048;exitY=0.2;exitDx=0;exitDy=0;exitPerimeter=0;" edge="1" parent="1" source="Ra9LiNY-mYti2OhK1B9W-43">
          <mxGeometry width="50" height="50" relative="1" as="geometry">
            <mxPoint x="140" y="850" as="sourcePoint" />
            <mxPoint x="80" y="610" as="targetPoint" />
          </mxGeometry>
        </mxCell>
        <mxCell id="Ra9LiNY-mYti2OhK1B9W-88" value="" style="endArrow=none;html=1;rounded=0;exitX=0;exitY=0.3;exitDx=0;exitDy=0;exitPerimeter=0;" edge="1" parent="1" source="Ra9LiNY-mYti2OhK1B9W-41">
          <mxGeometry width="50" height="50" relative="1" as="geometry">
            <mxPoint x="80" y="840" as="sourcePoint" />
            <mxPoint x="80" y="610" as="targetPoint" />
          </mxGeometry>
        </mxCell>
        <mxCell id="Ra9LiNY-mYti2OhK1B9W-89" value="" style="endArrow=none;html=1;rounded=0;" edge="1" parent="1" target="Ra9LiNY-mYti2OhK1B9W-35">
          <mxGeometry width="50" height="50" relative="1" as="geometry">
            <mxPoint x="80" y="610" as="sourcePoint" />
            <mxPoint x="210" y="540" as="targetPoint" />
          </mxGeometry>
        </mxCell>
        <mxCell id="Ra9LiNY-mYti2OhK1B9W-90" value="" style="endArrow=none;html=1;rounded=0;" edge="1" parent="1">
          <mxGeometry width="50" height="50" relative="1" as="geometry">
            <mxPoint x="80" y="610" as="sourcePoint" />
            <mxPoint x="300" y="540" as="targetPoint" />
          </mxGeometry>
        </mxCell>
        <mxCell id="Ra9LiNY-mYti2OhK1B9W-91" value="" style="endArrow=none;html=1;rounded=0;entryX=0;entryY=0.5;entryDx=0;entryDy=0;" edge="1" parent="1" target="Ra9LiNY-mYti2OhK1B9W-32">
          <mxGeometry width="50" height="50" relative="1" as="geometry">
            <mxPoint x="80" y="610" as="sourcePoint" />
            <mxPoint x="160" y="470" as="targetPoint" />
          </mxGeometry>
        </mxCell>
        <mxCell id="Ra9LiNY-mYti2OhK1B9W-92" value="" style="endArrow=none;html=1;rounded=0;entryX=0;entryY=0.5;entryDx=0;entryDy=0;" edge="1" parent="1" target="Ra9LiNY-mYti2OhK1B9W-34">
          <mxGeometry width="50" height="50" relative="1" as="geometry">
            <mxPoint x="80" y="610" as="sourcePoint" />
            <mxPoint x="240" y="550" as="targetPoint" />
          </mxGeometry>
        </mxCell>
        <mxCell id="Ra9LiNY-mYti2OhK1B9W-93" value="" style="endArrow=none;html=1;rounded=0;entryX=0.43;entryY=0.98;entryDx=0;entryDy=0;entryPerimeter=0;" edge="1" parent="1" target="Ra9LiNY-mYti2OhK1B9W-21">
          <mxGeometry width="50" height="50" relative="1" as="geometry">
            <mxPoint x="80" y="610" as="sourcePoint" />
            <mxPoint x="170" y="480" as="targetPoint" />
          </mxGeometry>
        </mxCell>
        <mxCell id="Ra9LiNY-mYti2OhK1B9W-94" value="&amp;lt;&amp;lt;include&amp;gt;&amp;gt;" style="html=1;verticalAlign=bottom;endArrow=open;dashed=1;endSize=8;curved=0;rounded=0;exitX=0.755;exitY=1;exitDx=0;exitDy=0;exitPerimeter=0;" edge="1" parent="1" source="Ra9LiNY-mYti2OhK1B9W-35" target="Ra9LiNY-mYti2OhK1B9W-38">
          <mxGeometry x="0.9502" y="17" relative="1" as="geometry">
            <mxPoint x="340" y="680" as="sourcePoint" />
            <mxPoint x="260" y="680" as="targetPoint" />
            <mxPoint as="offset" />
          </mxGeometry>
        </mxCell>
        <mxCell id="Ra9LiNY-mYti2OhK1B9W-95" value="" style="endArrow=none;html=1;rounded=0;" edge="1" parent="1">
          <mxGeometry width="50" height="50" relative="1" as="geometry">
            <mxPoint x="100" y="1080" as="sourcePoint" />
            <mxPoint x="100" y="20" as="targetPoint" />
          </mxGeometry>
        </mxCell>
        <mxCell id="Ra9LiNY-mYti2OhK1B9W-96" value="" style="endArrow=none;html=1;rounded=0;" edge="1" parent="1">
          <mxGeometry width="50" height="50" relative="1" as="geometry">
            <mxPoint x="100" y="20" as="sourcePoint" />
            <mxPoint x="760" y="20" as="targetPoint" />
          </mxGeometry>
        </mxCell>
        <mxCell id="Ra9LiNY-mYti2OhK1B9W-97" value="" style="endArrow=none;html=1;rounded=0;" edge="1" parent="1">
          <mxGeometry width="50" height="50" relative="1" as="geometry">
            <mxPoint x="770" y="1080" as="sourcePoint" />
            <mxPoint x="760" y="20" as="targetPoint" />
          </mxGeometry>
        </mxCell>
        <mxCell id="Ra9LiNY-mYti2OhK1B9W-98" value="" style="endArrow=none;html=1;rounded=0;" edge="1" parent="1">
          <mxGeometry width="50" height="50" relative="1" as="geometry">
            <mxPoint x="100" y="1080" as="sourcePoint" />
            <mxPoint x="770" y="1080" as="targetPoint" />
          </mxGeometry>
        </mxCell>
      </root>
    </mxGraphModel>
  </diagram>
</mxfile>
